<svg xmlns="http://www.w3.org/2000/svg" xmlns:v="https://svgstorm.com"
viewBox = "0 0 512 512"
width="512"
height="512">
<g fill="None" fill-opacity="0.0" stroke="#000000" stroke-opacity="0.00" stroke-width="0.3"><path d="
M 0.00 135.00 
C 7.14 75.33 68.12 32.92 128.00 42.00
C 127.85 26.70 124.58 6.26 142.00 0.00
L 0.00 0.00
L 0.00 135.00 Z"/>
</g>
<g fill="None" fill-opacity="0.0" stroke="#FA9E32" stroke-opacity="0.98" stroke-width="0.3"><path d="
M 0.00 135.00 
L 0.00 420.00
C 5.80 465.86 46.21 506.21 92.00 512.00
L 420.00 512.00
C 465.86 506.20 506.21 465.79 512.00 420.00
L 512.00 135.00
C 504.86 75.34 443.90 32.89 384.00 42.00
C 384.15 26.70 387.42 6.26 370.00 0.00
L 356.00 0.00
C 338.47 5.64 340.45 26.48 341.00 42.00
C 284.33 42.00 227.67 42.00 171.00 42.00
C 171.58 26.47 173.48 5.62 156.00 0.00
L 142.00 0.00
C 124.58 6.26 127.85 26.70 128.00 42.00
C 68.12 32.92 7.14 75.33 0.00 135.00
M 469.00 170.00 
C 327.00 170.00 185.00 170.00 43.00 170.00
C 37.90 128.49 60.57 85.62 107.00 86.00 C 153.43 86.38 208.79 86.12 256.00 86.00 C 303.21 85.88 357.53 86.71 404.00 86.00 C 450.47 85.29 474.55 127.85 469.00 170.00
M 469.00 214.00 
C 467.28 251.60 471.30 293.86 469.00 331.00 C 466.70 368.14 477.37 406.06 459.23 438.23 C 441.09 470.40 408.03 469.58 373.00 469.00 C 337.97 468.42 292.00 469.01 256.00 469.00 C 220.00 468.99 173.98 468.46 139.00 469.00 C 104.02 469.54 70.85 470.47 52.70 438.30 C 34.54 406.13 45.36 368.11 43.00 331.00 C 40.64 293.89 44.77 251.59 43.00 214.00
C 185.00 214.00 327.00 214.00 469.00 214.00 Z"/>
</g>
<g fill="None" fill-opacity="0.0" stroke="#000000" stroke-opacity="0.00" stroke-width="0.3"><path d="
M 356.00 0.00 
L 156.00 0.00
C 173.48 5.62 171.58 26.47 171.00 42.00
C 227.67 42.00 284.33 42.00 341.00 42.00
C 340.45 26.48 338.47 5.64 356.00 0.00 Z"/>
</g>
<g fill="None" fill-opacity="0.0" stroke="#000000" stroke-opacity="0.00" stroke-width="0.3"><path d="
M 512.00 135.00 
L 512.00 0.00
L 370.00 0.00
C 387.42 6.26 384.15 26.70 384.00 42.00
C 443.90 32.89 504.86 75.34 512.00 135.00 Z"/>
</g>
<g fill="None" fill-opacity="0.0" stroke="#000000" stroke-opacity="0.00" stroke-width="0.3"><path d="
M 469.00 170.00 
C 474.55 127.85 450.47 85.29 404.00 86.00 C 357.53 86.71 303.21 85.88 256.00 86.00 C 208.79 86.12 153.43 86.38 107.00 86.00 C 60.57 85.62 37.90 128.49 43.00 170.00
C 185.00 170.00 327.00 170.00 469.00 170.00 Z"/>
</g>
<g fill="None" fill-opacity="0.0" stroke="#000000" stroke-opacity="0.00" stroke-width="0.3"><path d="
M 469.00 214.00 
C 327.00 214.00 185.00 214.00 43.00 214.00
C 44.77 251.59 40.64 293.89 43.00 331.00 C 45.36 368.11 34.54 406.13 52.70 438.30 C 70.85 470.47 104.02 469.54 139.00 469.00 C 173.98 468.46 220.00 468.99 256.00 469.00 C 292.00 469.01 337.97 468.42 373.00 469.00 C 408.03 469.58 441.09 470.40 459.23 438.23 C 477.37 406.06 466.70 368.14 469.00 331.00 C 471.30 293.86 467.28 251.60 469.00 214.00
M 180.00 256.00 
C 193.74 258.23 205.08 268.49 210.77 282.23 C 216.46 295.96 213.19 319.99 214.00 336.00 C 214.81 352.01 209.58 365.40 196.75 375.75 C 183.93 386.11 164.38 383.92 148.00 384.00 C 131.62 384.08 112.87 385.68 100.25 374.75 C 87.64 363.81 83.61 348.89 85.00 333.00 C 86.39 317.11 81.46 293.12 88.93 279.93 C 96.39 266.73 105.85 255.87 122.01 256.01 C 138.17 256.14 163.46 253.31 180.00 256.00 Z"/>
</g>
<g fill="None" fill-opacity="0.0" stroke="#FA9E33" stroke-opacity="0.98" stroke-width="0.3"><path d="
M 180.00 256.00 
C 163.46 253.31 138.17 256.14 122.01 256.01 C 105.85 255.87 96.39 266.73 88.93 279.93 C 81.46 293.12 86.39 317.11 85.00 333.00 C 83.61 348.89 87.64 363.81 100.25 374.75 C 112.87 385.68 131.62 384.08 148.00 384.00 C 164.38 383.92 183.93 386.11 196.75 375.75 C 209.58 365.40 214.81 352.01 214.00 336.00 C 213.19 319.99 216.46 295.96 210.77 282.23 C 205.08 268.49 193.74 258.23 180.00 256.00
M 170.00 299.00 
C 170.00 313.00 170.00 327.00 170.00 341.00
C 156.00 341.00 142.00 341.00 128.00 341.00
C 128.00 327.00 128.00 313.00 128.00 299.00
C 142.00 299.00 156.00 299.00 170.00 299.00 Z"/>
</g>
<g fill="None" fill-opacity="0.0" stroke="#000000" stroke-opacity="0.00" stroke-width="0.3"><path d="
M 170.00 299.00 
C 156.00 299.00 142.00 299.00 128.00 299.00
C 128.00 313.00 128.00 327.00 128.00 341.00
C 142.00 341.00 156.00 341.00 170.00 341.00
C 170.00 327.00 170.00 313.00 170.00 299.00 Z"/>
</g>
<g fill="None" fill-opacity="0.0" stroke="#000000" stroke-opacity="0.00" stroke-width="0.3"><path d="
M 0.00 512.00 
L 92.00 512.00
C 46.21 506.21 5.80 465.86 0.00 420.00
L 0.00 512.00 Z"/>
</g>
<g fill="None" fill-opacity="0.0" stroke="#000000" stroke-opacity="0.00" stroke-width="0.3"><path d="
M 420.00 512.00 
L 512.00 512.00
L 512.00 420.00
C 506.21 465.79 465.86 506.20 420.00 512.00 Z"/>
</g>
<g fill="#000000" fill-opacity="0.00" stroke="None">
<path d="
M 0.00 135.00 
C 7.14 75.33 68.12 32.92 128.00 42.00
C 127.85 26.70 124.58 6.26 142.00 0.00
L 0.00 0.00
L 0.00 135.00 Z"/>
</g>
<g fill="#FA9E32" fill-opacity="0.98" stroke="None">
<path d="
M 0.00 135.00 
L 0.00 420.00
C 5.80 465.86 46.21 506.21 92.00 512.00
L 420.00 512.00
C 465.86 506.20 506.21 465.79 512.00 420.00
L 512.00 135.00
C 504.86 75.34 443.90 32.89 384.00 42.00
C 384.15 26.70 387.42 6.26 370.00 0.00
L 356.00 0.00
C 338.47 5.64 340.45 26.48 341.00 42.00
C 284.33 42.00 227.67 42.00 171.00 42.00
C 171.58 26.47 173.48 5.62 156.00 0.00
L 142.00 0.00
C 124.58 6.26 127.85 26.70 128.00 42.00
C 68.12 32.92 7.14 75.33 0.00 135.00
M 469.00 170.00 
C 327.00 170.00 185.00 170.00 43.00 170.00
C 37.90 128.49 60.57 85.62 107.00 86.00 C 153.43 86.38 208.79 86.12 256.00 86.00 C 303.21 85.88 357.53 86.71 404.00 86.00 C 450.47 85.29 474.55 127.85 469.00 170.00
M 469.00 214.00 
C 467.28 251.60 471.30 293.86 469.00 331.00 C 466.70 368.14 477.37 406.06 459.23 438.23 C 441.09 470.40 408.03 469.58 373.00 469.00 C 337.97 468.42 292.00 469.01 256.00 469.00 C 220.00 468.99 173.98 468.46 139.00 469.00 C 104.02 469.54 70.85 470.47 52.70 438.30 C 34.54 406.13 45.36 368.11 43.00 331.00 C 40.64 293.89 44.77 251.59 43.00 214.00
C 185.00 214.00 327.00 214.00 469.00 214.00 Z"/>
</g>
<g fill="#000000" fill-opacity="0.00" stroke="None">
<path d="
M 356.00 0.00 
L 156.00 0.00
C 173.48 5.62 171.58 26.47 171.00 42.00
C 227.67 42.00 284.33 42.00 341.00 42.00
C 340.45 26.48 338.47 5.64 356.00 0.00 Z"/>
</g>
<g fill="#000000" fill-opacity="0.00" stroke="None">
<path d="
M 512.00 135.00 
L 512.00 0.00
L 370.00 0.00
C 387.42 6.26 384.15 26.70 384.00 42.00
C 443.90 32.89 504.86 75.34 512.00 135.00 Z"/>
</g>
<g fill="#000000" fill-opacity="0.00" stroke="None">
<path d="
M 469.00 170.00 
C 474.55 127.85 450.47 85.29 404.00 86.00 C 357.53 86.71 303.21 85.88 256.00 86.00 C 208.79 86.12 153.43 86.38 107.00 86.00 C 60.57 85.62 37.90 128.49 43.00 170.00
C 185.00 170.00 327.00 170.00 469.00 170.00 Z"/>
</g>
<g fill="#000000" fill-opacity="0.00" stroke="None">
<path d="
M 469.00 214.00 
C 327.00 214.00 185.00 214.00 43.00 214.00
C 44.77 251.59 40.64 293.89 43.00 331.00 C 45.36 368.11 34.54 406.13 52.70 438.30 C 70.85 470.47 104.02 469.54 139.00 469.00 C 173.98 468.46 220.00 468.99 256.00 469.00 C 292.00 469.01 337.97 468.42 373.00 469.00 C 408.03 469.58 441.09 470.40 459.23 438.23 C 477.37 406.06 466.70 368.14 469.00 331.00 C 471.30 293.86 467.28 251.60 469.00 214.00
M 180.00 256.00 
C 193.74 258.23 205.08 268.49 210.77 282.23 C 216.46 295.96 213.19 319.99 214.00 336.00 C 214.81 352.01 209.58 365.40 196.75 375.75 C 183.93 386.11 164.38 383.92 148.00 384.00 C 131.62 384.08 112.87 385.68 100.25 374.75 C 87.64 363.81 83.61 348.89 85.00 333.00 C 86.39 317.11 81.46 293.12 88.93 279.93 C 96.39 266.73 105.85 255.87 122.01 256.01 C 138.17 256.14 163.46 253.31 180.00 256.00 Z"/>
</g>
<g fill="#FA9E33" fill-opacity="0.98" stroke="None">
<path d="
M 180.00 256.00 
C 163.46 253.31 138.17 256.14 122.01 256.01 C 105.85 255.87 96.39 266.73 88.93 279.93 C 81.46 293.12 86.39 317.11 85.00 333.00 C 83.61 348.89 87.64 363.81 100.25 374.75 C 112.87 385.68 131.62 384.08 148.00 384.00 C 164.38 383.92 183.93 386.11 196.75 375.75 C 209.58 365.40 214.81 352.01 214.00 336.00 C 213.19 319.99 216.46 295.96 210.77 282.23 C 205.08 268.49 193.74 258.23 180.00 256.00
M 170.00 299.00 
C 170.00 313.00 170.00 327.00 170.00 341.00
C 156.00 341.00 142.00 341.00 128.00 341.00
C 128.00 327.00 128.00 313.00 128.00 299.00
C 142.00 299.00 156.00 299.00 170.00 299.00 Z"/>
</g>
<g fill="#000000" fill-opacity="0.00" stroke="None">
<path d="
M 170.00 299.00 
C 156.00 299.00 142.00 299.00 128.00 299.00
C 128.00 313.00 128.00 327.00 128.00 341.00
C 142.00 341.00 156.00 341.00 170.00 341.00
C 170.00 327.00 170.00 313.00 170.00 299.00 Z"/>
</g>
<g fill="#000000" fill-opacity="0.00" stroke="None">
<path d="
M 0.00 512.00 
L 92.00 512.00
C 46.21 506.21 5.80 465.86 0.00 420.00
L 0.00 512.00 Z"/>
</g>
<g fill="#000000" fill-opacity="0.00" stroke="None">
<path d="
M 420.00 512.00 
L 512.00 512.00
L 512.00 420.00
C 506.21 465.79 465.86 506.20 420.00 512.00 Z"/>
</g>
</svg>