<svg xmlns="http://www.w3.org/2000/svg" xmlns:v="https://svgstorm.com"
viewBox = "0 0 512 512"
width="512"
height="512">
<g fill="None" fill-opacity="0.0" stroke="#000000" stroke-opacity="0.00" stroke-width="0.3"><path d="
M 0.00 412.00 
C 9.56 361.11 51.71 315.77 109.00 320.00 C 166.29 324.23 237.08 304.87 284.08 345.92 C 331.08 386.96 319.62 453.93 320.00 512.00
L 512.00 512.00
L 512.00 427.00
C 497.67 427.00 483.33 427.00 469.00 427.00
C 463.48 384.14 483.36 330.16 450.25 296.75 C 417.14 263.34 362.70 283.66 320.00 278.00
C 320.00 263.33 320.00 248.67 320.00 234.00
C 361.07 235.78 415.56 227.73 451.68 244.32 C 487.80 260.91 504.16 291.77 512.00 327.00
L 512.00 0.00
L 387.00 0.00
C 455.42 8.73 491.81 91.08 454.25 148.25 C 416.68 205.41 330.90 206.33 292.75 149.25 C 254.59 92.18 291.14 7.72 360.00 0.00
L 0.00 0.00
L 0.00 412.00
M 171.00 85.00 
C 222.49 89.98 261.70 139.84 256.00 192.00 C 250.30 244.16 202.03 282.35 149.98 277.02 C 97.92 271.70 58.48 223.85 64.00 171.00 C 69.52 118.15 117.81 79.85 171.00 85.00 Z"/>
</g>
<g fill="None" fill-opacity="0.0" stroke="#FA9E33" stroke-opacity="0.97" stroke-width="0.3"><path d="
M 387.00 0.00 
L 360.00 0.00
C 291.14 7.72 254.59 92.18 292.75 149.25 C 330.90 206.33 416.68 205.41 454.25 148.25 C 491.81 91.08 455.42 8.73 387.00 0.00
M 379.00 43.00 
C 417.38 47.64 439.47 94.52 416.25 126.25 C 393.02 157.97 345.36 155.37 326.70 120.30 C 308.03 85.24 337.58 37.99 379.00 43.00 Z"/>
</g>
<g fill="None" fill-opacity="0.0" stroke="#000000" stroke-opacity="0.00" stroke-width="0.3"><path d="
M 379.00 43.00 
C 337.58 37.99 308.03 85.24 326.70 120.30 C 345.36 155.37 393.02 157.97 416.25 126.25 C 439.47 94.52 417.38 47.64 379.00 43.00 Z"/>
</g>
<g fill="None" fill-opacity="0.0" stroke="#FA9E33" stroke-opacity="0.97" stroke-width="0.3"><path d="
M 171.00 85.00 
C 117.81 79.85 69.52 118.15 64.00 171.00 C 58.48 223.85 97.92 271.70 149.98 277.02 C 202.03 282.35 250.30 244.16 256.00 192.00 C 261.70 139.84 222.49 89.98 171.00 85.00
M 170.00 129.00 
C 207.53 135.10 226.04 184.98 201.23 214.23 C 176.42 243.48 127.71 239.52 111.69 202.31 C 95.68 165.09 128.04 122.19 170.00 129.00 Z"/>
</g>
<g fill="None" fill-opacity="0.0" stroke="#000000" stroke-opacity="0.00" stroke-width="0.3"><path d="
M 170.00 129.00 
C 128.04 122.19 95.68 165.09 111.69 202.31 C 127.71 239.52 176.42 243.48 201.23 214.23 C 226.04 184.98 207.53 135.10 170.00 129.00 Z"/>
</g>
<g fill="None" fill-opacity="0.0" stroke="#FA9E33" stroke-opacity="0.98" stroke-width="0.3"><path d="
M 512.00 427.00 
L 512.00 327.00
C 504.16 291.77 487.80 260.91 451.68 244.32 C 415.56 227.73 361.07 235.78 320.00 234.00
C 320.00 248.67 320.00 263.33 320.00 278.00
C 362.70 283.66 417.14 263.34 450.25 296.75 C 483.36 330.16 463.48 384.14 469.00 427.00
C 483.33 427.00 497.67 427.00 512.00 427.00 Z"/>
</g>
<g fill="None" fill-opacity="0.0" stroke="#FA9E32" stroke-opacity="0.98" stroke-width="0.3"><path d="
M 0.00 412.00 
L 0.00 512.00
L 43.00 512.00
C 47.20 471.58 32.68 425.83 54.75 390.75 C 76.83 355.68 123.23 362.98 160.00 363.00 C 196.77 363.02 243.17 355.64 265.30 390.70 C 287.43 425.76 272.69 471.62 277.00 512.00
L 320.00 512.00
C 319.62 453.93 331.08 386.96 284.08 345.92 C 237.08 304.87 166.29 324.23 109.00 320.00 C 51.71 315.77 9.56 361.11 0.00 412.00 Z"/>
</g>
<g fill="None" fill-opacity="0.0" stroke="#000000" stroke-opacity="0.00" stroke-width="0.3"><path d="
M 43.00 512.00 
L 277.00 512.00
C 272.69 471.62 287.43 425.76 265.30 390.70 C 243.17 355.64 196.77 363.02 160.00 363.00 C 123.23 362.98 76.83 355.68 54.75 390.75 C 32.68 425.83 47.20 471.58 43.00 512.00 Z"/>
</g>
<g fill="#000000" fill-opacity="0.00" stroke="None">
<path d="
M 0.00 412.00 
C 9.56 361.11 51.71 315.77 109.00 320.00 C 166.29 324.23 237.08 304.87 284.08 345.92 C 331.08 386.96 319.62 453.93 320.00 512.00
L 512.00 512.00
L 512.00 427.00
C 497.67 427.00 483.33 427.00 469.00 427.00
C 463.48 384.14 483.36 330.16 450.25 296.75 C 417.14 263.34 362.70 283.66 320.00 278.00
C 320.00 263.33 320.00 248.67 320.00 234.00
C 361.07 235.78 415.56 227.73 451.68 244.32 C 487.80 260.91 504.16 291.77 512.00 327.00
L 512.00 0.00
L 387.00 0.00
C 455.42 8.73 491.81 91.08 454.25 148.25 C 416.68 205.41 330.90 206.33 292.75 149.25 C 254.59 92.18 291.14 7.72 360.00 0.00
L 0.00 0.00
L 0.00 412.00
M 171.00 85.00 
C 222.49 89.98 261.70 139.84 256.00 192.00 C 250.30 244.16 202.03 282.35 149.98 277.02 C 97.92 271.70 58.48 223.85 64.00 171.00 C 69.52 118.15 117.81 79.85 171.00 85.00 Z"/>
</g>
<g fill="#FA9E33" fill-opacity="0.97" stroke="None">
<path d="
M 387.00 0.00 
L 360.00 0.00
C 291.14 7.72 254.59 92.18 292.75 149.25 C 330.90 206.33 416.68 205.41 454.25 148.25 C 491.81 91.08 455.42 8.73 387.00 0.00
M 379.00 43.00 
C 417.38 47.64 439.47 94.52 416.25 126.25 C 393.02 157.97 345.36 155.37 326.70 120.30 C 308.03 85.24 337.58 37.99 379.00 43.00 Z"/>
</g>
<g fill="#000000" fill-opacity="0.00" stroke="None">
<path d="
M 379.00 43.00 
C 337.58 37.99 308.03 85.24 326.70 120.30 C 345.36 155.37 393.02 157.97 416.25 126.25 C 439.47 94.52 417.38 47.64 379.00 43.00 Z"/>
</g>
<g fill="#FA9E33" fill-opacity="0.97" stroke="None">
<path d="
M 171.00 85.00 
C 117.81 79.85 69.52 118.15 64.00 171.00 C 58.48 223.85 97.92 271.70 149.98 277.02 C 202.03 282.35 250.30 244.16 256.00 192.00 C 261.70 139.84 222.49 89.98 171.00 85.00
M 170.00 129.00 
C 207.53 135.10 226.04 184.98 201.23 214.23 C 176.42 243.48 127.71 239.52 111.69 202.31 C 95.68 165.09 128.04 122.19 170.00 129.00 Z"/>
</g>
<g fill="#000000" fill-opacity="0.00" stroke="None">
<path d="
M 170.00 129.00 
C 128.04 122.19 95.68 165.09 111.69 202.31 C 127.71 239.52 176.42 243.48 201.23 214.23 C 226.04 184.98 207.53 135.10 170.00 129.00 Z"/>
</g>
<g fill="#FA9E33" fill-opacity="0.98" stroke="None">
<path d="
M 512.00 427.00 
L 512.00 327.00
C 504.16 291.77 487.80 260.91 451.68 244.32 C 415.56 227.73 361.07 235.78 320.00 234.00
C 320.00 248.67 320.00 263.33 320.00 278.00
C 362.70 283.66 417.14 263.34 450.25 296.75 C 483.36 330.16 463.48 384.14 469.00 427.00
C 483.33 427.00 497.67 427.00 512.00 427.00 Z"/>
</g>
<g fill="#FA9E32" fill-opacity="0.98" stroke="None">
<path d="
M 0.00 412.00 
L 0.00 512.00
L 43.00 512.00
C 47.20 471.58 32.68 425.83 54.75 390.75 C 76.83 355.68 123.23 362.98 160.00 363.00 C 196.77 363.02 243.17 355.64 265.30 390.70 C 287.43 425.76 272.69 471.62 277.00 512.00
L 320.00 512.00
C 319.62 453.93 331.08 386.96 284.08 345.92 C 237.08 304.87 166.29 324.23 109.00 320.00 C 51.71 315.77 9.56 361.11 0.00 412.00 Z"/>
</g>
<g fill="#000000" fill-opacity="0.00" stroke="None">
<path d="
M 43.00 512.00 
L 277.00 512.00
C 272.69 471.62 287.43 425.76 265.30 390.70 C 243.17 355.64 196.77 363.02 160.00 363.00 C 123.23 362.98 76.83 355.68 54.75 390.75 C 32.68 425.83 47.20 471.58 43.00 512.00 Z"/>
</g>
</svg>